<svg id="Layer_1" data-name="Layer 1" xmlns="http://www.w3.org/2000/svg" viewBox="0 0 512 404.03"><defs><style>.cls-1{fill:#fff;}</style></defs><title>delivery</title><path class="cls-1" d="M502.53,830a10,10,0,1,0,7.07,2.93,10.08,10.08,0,0,0-7.07-2.93Zm0,0" transform="translate(-284 -446)"/><path class="cls-1" d="M701.71,662.11l-7.19-32.46a29.48,29.48,0,0,0,3.66.23h20a10,10,0,0,0,10-10v-40a10,10,0,0,0-10-10h-20a29.79,29.79,0,0,0-15.88,4.56l-3.9-17.61A25,25,0,0,0,700,532.09V514a25,25,0,0,0-25-25H616a25,25,0,0,0-23.3,16H569a26,26,0,0,0,0,52h51.47v20.15a10,10,0,0,0,20,0V557.06H658l25.1,113.42-47.5,84.62A29.37,29.37,0,0,1,610,770H491.41A84.13,84.13,0,0,0,408,696a83.21,83.21,0,0,0-51.85,17.9l-.06,0A83.53,83.53,0,0,0,324.56,770H304c1.31-71.89,60.19-130,132.39-130h54.93a10.17,10.17,0,0,1,10.16,10.16V740a10,10,0,0,0,10,10h69.21a59.65,59.65,0,0,0,59.64-59.58l0-33.22a10,10,0,0,0-10-10h0a10,10,0,0,0-10,10l0,33.23A39.64,39.64,0,0,1,580.71,730H521.5V650.22a30.06,30.06,0,0,0-8.84-21.31A34,34,0,0,0,510.41,581a19.72,19.72,0,0,0,2.12-8.9V466a20,20,0,0,0-20-20H386.47a20,20,0,0,0-20,20v58H324.09a10,10,0,1,0,0,20h42.38v28.06H294a10,10,0,0,0,0,20h66.53a33.95,33.95,0,0,0,11.87,42.12A152.59,152.59,0,0,0,284,772.47V780a10,10,0,0,0,10,10h56.2a10.12,10.12,0,0,0-.2,2,57.74,57.74,0,0,0,14.21,38H324.09a10,10,0,1,0,0,20h82.75c.39,0,.77,0,1.16,0a58.07,58.07,0,0,0,58-58,10.12,10.12,0,0,0-.2-2H610a49.43,49.43,0,0,0,39.69-20h12.66a57.83,57.83,0,0,0,9.85,60H542.53a10,10,0,0,0,0,20H714.84c.39,0,.77,0,1.16,0a58,58,0,0,0,53.64-80H786a10,10,0,0,0,10-10,98.08,98.08,0,0,0-94.29-97.89Zm-3.53-72.23h10v20h-10a10,10,0,0,1,0-20ZM450.38,466v22h-22V466Zm-63.91,0h21.88v32a10,10,0,0,0,10,10h42a10,10,0,0,0,10-10V466h22.15l0,106.06H386.47Zm5,154.06a14,14,0,0,1,0-28h96a14,14,0,0,1,0,28ZM446,792a38,38,0,0,1-37.61,38l-.39,0h-1.15A38,38,0,0,1,370,792a10.12,10.12,0,0,0-.2-2h76.4a10.12,10.12,0,0,0-.2,2ZM344.74,770a63.64,63.64,0,0,1,23.71-40.36l.09-.07A63.36,63.36,0,0,1,408,716a64.14,64.14,0,0,1,63.25,54ZM563,531.06a6,6,0,0,1,6-6h22v7a24.57,24.57,0,0,0,.5,5H569a6,6,0,0,1-6-6Zm67.47,6H616a5,5,0,0,1-5-5V514a5,5,0,0,1,5-5h59a5,5,0,0,1,5,5v18.06a5,5,0,0,1-5,5ZM754,792a38,38,0,0,1-37.61,38l-.39,0h-1.15A38,38,0,0,1,685,770H747a38,38,0,0,1,7,22Zm-2.26-42H661.36l38.14-67.92A78.06,78.06,0,0,1,775.36,750Zm0,0" transform="translate(-284 -446)"/><path class="cls-1" d="M630.47,627.21a10,10,0,0,0,0-20h0a10,10,0,1,0,0,20Zm0,0" transform="translate(-284 -446)"/></svg>