<?xml version="1.0" encoding="utf-8"?>
<!-- Generator: Adobe Illustrator 24.0.1, SVG Export Plug-In . SVG Version: 6.00 Build 0)  -->
<svg version="1.1" id="Camada_1" xmlns="http://www.w3.org/2000/svg" xmlns:xlink="http://www.w3.org/1999/xlink" x="0px" y="0px"
	 viewBox="0 0 40 40" style="enable-background:new 0 0 40 40;" xml:space="preserve">
<style type="text/css">
	.st0{fill:#FFFFFF;}
</style>
<g>
	<path class="st0" d="M21.17,8.33c0,0.64-0.52,1.17-1.17,1.17s-1.17-0.52-1.17-1.17S19.35,7.16,20,7.16
		C20.64,7.16,21.17,7.68,21.17,8.33L21.17,8.33z"/>
	<path class="st0" d="M30.51,8.33c0,0.64-0.52,1.17-1.17,1.17s-1.17-0.52-1.17-1.17s0.52-1.17,1.17-1.17
		C29.98,7.16,30.51,7.68,30.51,8.33L30.51,8.33z"/>
	<path class="st0" d="M25.84,5.99c0,0.64-0.52,1.17-1.17,1.17S23.5,6.64,23.5,5.99c0-0.64,0.52-1.17,1.17-1.17
		C25.31,4.82,25.84,5.35,25.84,5.99L25.84,5.99z"/>
	<path class="st0" d="M16.5,5.99c0,0.64-0.52,1.17-1.17,1.17c-0.64,0-1.17-0.52-1.17-1.17c0-0.64,0.52-1.17,1.17-1.17
		C15.97,4.82,16.5,5.35,16.5,5.99L16.5,5.99z"/>
	<path class="st0" d="M11.83,8.33c0,0.64-0.52,1.17-1.17,1.17S9.49,8.98,9.49,8.33s0.52-1.17,1.17-1.17
		C11.3,7.16,11.83,7.68,11.83,8.33L11.83,8.33z"/>
	<path class="st0" d="M39.92,23.5c0-2.2-1.53-4.05-3.58-4.54V16.5c0.64,0,1.17-0.52,1.17-1.17v-2.41c0-7.08-5.76-12.84-12.84-12.84
		h-9.34c-7.08,0-12.84,5.76-12.84,12.84v2.41c0,0.64,0.52,1.17,1.17,1.17v2.46C1.6,19.45,0.08,21.3,0.08,23.5s1.53,4.05,3.58,4.54
		v2.46c-0.65,0-1.17,0.52-1.17,1.17v2.41c0,3.22,2.62,5.84,5.84,5.84h23.35c3.22,0,5.84-2.62,5.84-5.84v-2.41
		c0-0.62-0.48-1.12-1.09-1.16v-2.49C38.43,27.5,39.92,25.67,39.92,23.5L39.92,23.5z M30.51,30.51v-2.33h3.58v2.33H30.51z
		 M37.59,23.5c0,1.29-1.05,2.33-2.33,2.33h-4.75v-4.67h4.75C36.54,21.17,37.59,22.21,37.59,23.5L37.59,23.5z M4.82,12.92
		c0-5.79,4.71-10.51,10.51-10.51h9.34c5.79,0,10.51,4.71,10.51,10.51v1.25H4.82V12.92z M34.01,16.5v2.33h-4.67
		c-0.65,0-1.17,0.52-1.17,1.17v11.67c0,0.64-0.52,1.17-1.17,1.17c-0.64,0-1.17-0.52-1.17-1.17V20c0-0.64-0.52-1.17-1.17-1.17h-7
		c-0.65,0-1.17,0.52-1.17,1.17c0,0.64-0.52,1.17-1.17,1.17s-1.17-0.52-1.17-1.17c0-0.64-0.52-1.17-1.17-1.17h-7V16.5H34.01z
		 M2.41,23.5c0-1.29,1.05-2.33,2.33-2.33h7.28c0.48,1.36,1.78,2.33,3.3,2.33s2.82-0.98,3.3-2.33h4.87v4.67H4.75
		C3.46,25.84,2.41,24.79,2.41,23.5L2.41,23.5z M5.99,28.17H23.5v2.33H5.99V28.17z M35.18,34.09c0,1.93-1.57,3.5-3.5,3.5H8.33
		c-1.93,0-3.5-1.57-3.5-3.5v-1.25H23.7c0.48,1.36,1.78,2.33,3.3,2.33s2.82-0.98,3.3-2.33h4.87v1.25H35.18z"/>
</g>
</svg>
